# xmcd
#
# Track frame offsets:
# 150
# 16364
# 37349
# 54273
# 75948
# 94855
# 115586
# 129679
# 141368
# 157438
# 174752
# 190845
# 210304
# 225602
# 240529
# 256427
#
# Disc length: 3583 seconds
#
#
# Revision: 0
# Processed by: cddbd v1.5.2PL0 Copyright (c) Steve Scherf et al.
# Submitted via: FreeRIP 2.951 
#
DISCID=d20dfd10
DTITLE=Sertanejo 2004 Acústico
DYEAR=2004
DGENRE=sertanejo
TTITLE0=São Mil Razoes Pra chorar
TTITLE1=A força do Amor
TTITLE2=Ligação urbana
TTITLE3=Um sonhador
TTITLE4=Sem direção
TTITLE5=Evidencias
TTITLE6=Azul
TTITLE7=Morena proibida
TTITLE8=Quando a Saudade Aperta
TTITLE9=Cuida De Mim
TTITLE10=Meu Reino Encantado
TTITLE11=Me Esqueça
TTITLE12=Deixa eu TE Amar
TTITLE13=Preciso te Encontrar
TTITLE14=Eu Sem Voçe
TTITLE15=A Força DA Paixão
EXTD=
EXTT0=
EXTT1=
EXTT2=
EXTT3=
EXTT4=
EXTT5=
EXTT6=
EXTT7=
EXTT8=
EXTT9=
EXTT10=
EXTT11=
EXTT12=
EXTT13=
EXTT14=
EXTT15=
PLAYORDER=
